<svg xmlns="http://www.w3.org/2000/svg" version="1.1" xmlns:xlink="http://www.w3.org/1999/xlink" xmlns:svgjs="http://svgjs.com/svgjs" width="1440" height="560" preserveAspectRatio="none" viewBox="0 0 1440 560"><g mask="url(&quot;#SvgjsMask2674&quot;)" fill="none"><rect width="1440" height="560" x="0" y="0" fill="url(#SvgjsLinearGradient2675)"></rect><path d="M1440 0L756.9 0L1440 9.91z" fill="rgba(255, 255, 255, .1)"></path><path d="M756.9 0L1440 9.91L1440 279.29L382.02 0z" fill="rgba(255, 255, 255, .075)"></path><path d="M382.02 0L1440 279.29L1440 354.69000000000005L227.35999999999999 0z" fill="rgba(255, 255, 255, .05)"></path><path d="M227.3599999999999 0L1440 354.69000000000005L1440 420.6L120.5799999999999 0z" fill="rgba(255, 255, 255, .025)"></path><path d="M0 560L409.13 560L0 551.95z" fill="rgba(0, 0, 0, .1)"></path><path d="M0 551.95L409.13 560L651.5 560L0 357.20000000000005z" fill="rgba(0, 0, 0, .075)"></path><path d="M0 357.2L651.5 560L858.35 560L0 153.54999999999998z" fill="rgba(0, 0, 0, .05)"></path><path d="M0 153.54999999999995L858.35 560L1227.14 560L0 148.58999999999995z" fill="rgba(0, 0, 0, .025)"></path></g><defs><mask id="SvgjsMask2674"><rect width="1440" height="560" fill="#ffffff"></rect></mask><linearGradient x1="84.72%" y1="-39.29%" x2="15.28%" y2="139.29%" gradientUnits="userSpaceOnUse" id="SvgjsLinearGradient2675"><stop stop-color="#0e2a47" offset="0"></stop><stop stop-color="rgba(43, 74, 91, 1)" offset="1"></stop></linearGradient></defs></svg>